<svg width="82" height="25" viewBox="0 0 82 25" fill="none" xmlns="http://www.w3.org/2000/svg">
<circle cx="11" cy="11" r="11" fill="url(#paint0_radial)"/>
<g filter="url(#filter0_d)">
<path d="M20.9152 8.527C20.6283 7.683 19.6984 7.227 18.8368 7.508L14.2707 9L6.1041 6L4.06246 7L10.1874 11L6.1041 13L2.02082 11L1 12L5.08328 16L19.9332 10.545C20.761 10.24 21.1949 9.35 20.9152 8.527Z" fill="white"/>
</g>
<path d="M33.9258 19H28.1338V6.15039H33.9258V8.21582H30.5244V11.2744H33.6797V13.3486H30.5244V16.9082H33.9258V19ZM37.3447 13.999L34.9014 9.20898H37.3271L38.6279 12.1973L39.832 9.20898H42.2402L39.7793 13.999L42.3457 19H39.9023L38.5137 15.8711L37.2217 19H34.7871L37.3447 13.999ZM47.8477 19.1758C47.4258 19.1758 47.0508 19.082 46.7227 18.8945C46.4004 18.7012 46.0986 18.3643 45.8174 17.8838H45.6943C45.7881 18.6807 45.835 19.1611 45.835 19.3252V23.3242H43.4795V9.20898H45.29L45.6943 10.4834H45.7998C46.2861 9.51074 46.9922 9.02441 47.918 9.02441C48.8086 9.02441 49.5059 9.4668 50.0098 10.3516C50.5137 11.2305 50.7656 12.4756 50.7656 14.0869C50.7656 15.6748 50.5049 16.9199 49.9834 17.8223C49.4619 18.7246 48.75 19.1758 47.8477 19.1758ZM47.127 11.0107C46.6699 11.0107 46.3389 11.2246 46.1338 11.6523C45.9346 12.0742 45.8291 12.7773 45.8174 13.7617V14.0693C45.8174 15.1475 45.9199 15.9326 46.125 16.4248C46.3301 16.917 46.6699 17.1631 47.1445 17.1631C47.9648 17.1631 48.375 16.126 48.375 14.0518C48.375 13.0322 48.2725 12.2705 48.0674 11.7666C47.8682 11.2627 47.5547 11.0107 47.127 11.0107ZM56.0215 19.1758C54.7969 19.1758 53.8301 18.7422 53.1211 17.875C52.418 17.002 52.0664 15.7686 52.0664 14.1748C52.0664 12.5576 52.3857 11.2949 53.0244 10.3867C53.6631 9.47852 54.5537 9.02441 55.6963 9.02441C56.7627 9.02441 57.6035 9.41406 58.2188 10.1934C58.834 10.9668 59.1416 12.0537 59.1416 13.4541V14.7021H54.4395C54.457 15.5752 54.6357 16.2256 54.9756 16.6533C55.3154 17.0752 55.7842 17.2861 56.3818 17.2861C57.1436 17.2861 57.9229 17.0488 58.7197 16.5742V18.499C57.9697 18.9502 57.0703 19.1758 56.0215 19.1758ZM55.6787 10.8262C55.3447 10.8262 55.0693 11.0049 54.8525 11.3623C54.6357 11.7139 54.5098 12.2617 54.4746 13.0059H56.8477C56.8359 12.291 56.7275 11.749 56.5225 11.3799C56.3174 11.0107 56.0361 10.8262 55.6787 10.8262ZM63.2637 19.1758C62.3613 19.1758 61.6494 18.7305 61.1279 17.8398C60.6064 16.9492 60.3457 15.71 60.3457 14.1221C60.3457 12.5283 60.6006 11.2803 61.1104 10.3779C61.6201 9.47559 62.3232 9.02441 63.2197 9.02441C63.665 9.02441 64.0488 9.13574 64.3711 9.3584C64.6992 9.5752 65.001 9.94434 65.2764 10.4658H65.417C65.3467 9.5752 65.3115 8.95117 65.3115 8.59375V5.32422H67.6494V19H65.9092L65.5137 17.7256H65.4346C64.9365 18.6924 64.2129 19.1758 63.2637 19.1758ZM64.0195 17.1982C64.4531 17.1982 64.7695 17.002 64.9688 16.6094C65.168 16.2109 65.2764 15.4902 65.2939 14.4473V14.1396C65.2939 13.0029 65.1914 12.2031 64.9863 11.7402C64.7871 11.2773 64.4561 11.0459 63.9932 11.0459C63.5596 11.0459 63.2432 11.3125 63.0439 11.8457C62.8506 12.373 62.7539 13.1436 62.7539 14.1572C62.7539 15.1709 62.8535 15.9326 63.0527 16.4424C63.252 16.9463 63.5742 17.1982 64.0195 17.1982ZM71.9736 19H69.6357V9.20898H71.9736V19ZM69.5391 6.65137C69.5391 6.26465 69.6504 5.95996 69.873 5.7373C70.1016 5.50879 70.418 5.39453 70.8223 5.39453C71.2031 5.39453 71.5078 5.50879 71.7363 5.7373C71.9648 5.95996 72.0791 6.26465 72.0791 6.65137C72.0791 7.0498 71.9619 7.36035 71.7275 7.58301C71.4932 7.7998 71.1914 7.9082 70.8223 7.9082C70.4355 7.9082 70.125 7.7998 69.8906 7.58301C69.6562 7.36035 69.5391 7.0498 69.5391 6.65137ZM78.7764 19L78.3105 17.6641H78.2578C77.9121 18.2383 77.5547 18.6338 77.1855 18.8506C76.8164 19.0674 76.3506 19.1758 75.7881 19.1758C75.0674 19.1758 74.499 18.9062 74.083 18.3672C73.6729 17.8281 73.4678 17.0781 73.4678 16.1172C73.4678 15.0859 73.749 14.3213 74.3115 13.8232C74.8799 13.3193 75.7266 13.041 76.8516 12.9883L78.1523 12.9355V12.2324C78.1523 11.3184 77.7568 10.8613 76.9658 10.8613C76.3799 10.8613 75.7061 11.0898 74.9443 11.5469L74.1357 9.92969C75.1084 9.31445 76.166 9.00684 77.3086 9.00684C78.3457 9.00684 79.1338 9.30566 79.6729 9.90332C80.2178 10.4951 80.4902 11.3359 80.4902 12.4258V19H78.7764ZM76.7461 17.3477C77.1738 17.3477 77.5137 17.1572 77.7656 16.7764C78.0234 16.3896 78.1523 15.877 78.1523 15.2383V14.4121L77.4316 14.4473C76.8984 14.4766 76.5059 14.6289 76.2539 14.9043C76.0078 15.1797 75.8848 15.5898 75.8848 16.1348C75.8848 16.9434 76.1719 17.3477 76.7461 17.3477Z" fill="white"/>
<defs>
<filter id="filter0_d" x="0" y="6" width="24" height="14" filterUnits="userSpaceOnUse" color-interpolation-filters="sRGB">
<feFlood flood-opacity="0" result="BackgroundImageFix"/>
<feColorMatrix in="SourceAlpha" type="matrix" values="0 0 0 0 0 0 0 0 0 0 0 0 0 0 0 0 0 0 127 0"/>
<feOffset dx="1" dy="2"/>
<feGaussianBlur stdDeviation="1"/>
<feColorMatrix type="matrix" values="0 0 0 0 0 0 0 0 0 0 0 0 0 0 0 0 0 0 0.25 0"/>
<feBlend mode="normal" in2="BackgroundImageFix" result="effect1_dropShadow"/>
<feBlend mode="normal" in="SourceGraphic" in2="effect1_dropShadow" result="shape"/>
</filter>
<radialGradient id="paint0_radial" cx="0" cy="0" r="1" gradientUnits="userSpaceOnUse" gradientTransform="translate(5.78947 1.15789) rotate(75.9638) scale(21.4836)">
<stop stop-color="#255E93"/>
<stop offset="0.473958" stop-color="#255E93" stop-opacity="0.68"/>
<stop offset="1" stop-color="#255E93"/>
</radialGradient>
</defs>
</svg>
